HIERARCHY
ROOT reference
{
  OFFSET 0 0 0
  CHANNELS 6 Xposition Yposition Zposition Zrotation Xrotation Yrotation
  JOINT Hips
  {
    OFFSET 347.352 87.9396 215.108
    CHANNELS 3 Zrotation Xrotation Yrotation
    JOINT RightUpLeg
    {
      OFFSET -9.26448 -1.5905 0.0349838
      CHANNELS 3 Zrotation Xrotation Yrotation
      JOINT RightLeg
      {
        OFFSET 0.0309074 -41.8937 0.0182011
        CHANNELS 3 Zrotation Xrotation Yrotation
        JOINT RightFoot
        {
          OFFSET 0.355296 -42.3801 0.810868
          CHANNELS 3 Zrotation Xrotation Yrotation
          End Site
          {
            OFFSET 0 -7.69 17.5
          }
        }
      }
    }
    JOINT LeftUpLeg
    {
      OFFSET 9.27369 -1.59127 -0.0547904
      CHANNELS 3 Zrotation Xrotation Yrotation
      JOINT LeftLeg
      {
        OFFSET 0.0553589 -41.8938 0.0587288
        CHANNELS 3 Zrotation Xrotation Yrotation
        JOINT LeftFoot
        {
          OFFSET 0.217916 -41.5497 -0.688939
          CHANNELS 3 Zrotation Xrotation Yrotation
          End Site
          {
            OFFSET 0 -7.69 17.5
          }
        }
      }
    }
    JOINT Spine
    {
      OFFSET 0.0383554 14.2988 0.0402393
      CHANNELS 3 Zrotation Xrotation Yrotation
      JOINT Spine1
      {
        OFFSET 0.0188251 9.70742 0.0136471
        CHANNELS 3 Zrotation Xrotation Yrotation
        JOINT Spine2
        {
          OFFSET 0.0421292 10.115 0.0126686
          CHANNELS 3 Zrotation Xrotation Yrotation
          JOINT Spine3
          {
            OFFSET 0.0499826 9.71803 0.0151296
            CHANNELS 3 Zrotation Xrotation Yrotation
            JOINT Neck
            {
              OFFSET 0.04654 10.3867 0.0448026
              CHANNELS 3 Zrotation Xrotation Yrotation
              JOINT Head
              {
                OFFSET 0.0370611 9.47282 0.0189897
                CHANNELS 3 Zrotation Xrotation Yrotation
                End Site
                {
                  OFFSET 0 15.95 0
                }
              }
            }
            JOINT RightShoulder
            {
              OFFSET -3.19309 6.93146 -0.00624137
              CHANNELS 3 Zrotation Xrotation Yrotation
              JOINT RightArm
              {
                OFFSET -12.7764 0.00688168 -0.00548706
                CHANNELS 3 Zrotation Xrotation Yrotation
                JOINT RightForeArm
                {
                  OFFSET -26.5073 -0.0244096 0.0677859
                  CHANNELS 3 Zrotation Xrotation Yrotation
                  JOINT RightHand
                  {
                    OFFSET -26.0056 -0.000416843 0.0508974
                    CHANNELS 3 Zrotation Xrotation Yrotation
                    JOINT RightHandThumb1
                    {
                      OFFSET -2.48905 0.190105 3.12053
                      CHANNELS 3 Zrotation Xrotation Yrotation
                      JOINT RightHandThumb2
                      {
                        OFFSET -3.68274 0 0
                        CHANNELS 3 Zrotation Xrotation Yrotation
                        JOINT RightHandThumb3
                        {
                          OFFSET -2.55832 0 0
                          CHANNELS 3 Zrotation Xrotation Yrotation
                          End Site
                          {
                            OFFSET -2.194 0 0
                          }
                        }
                      }
                    }
                    JOINT RightInHandIndex
                    {
                      OFFSET -3.22368 0.508421 1.97842
                      CHANNELS 3 Zrotation Xrotation Yrotation
                      JOINT RightHandIndex1
                      {
                        OFFSET -5.21684 -0.091368 0.999158
                        CHANNELS 3 Zrotation Xrotation Yrotation
                        JOINT RightHandIndex2
                        {
                          OFFSET -3.61937 0 0
                          CHANNELS 3 Zrotation Xrotation Yrotation
                          JOINT RightHandIndex3
                          {
                            OFFSET -2.0521 0 0
                            CHANNELS 3 Zrotation Xrotation Yrotation
                            End Site
                            {
                              OFFSET -1.805 0 0
                            }
                          }
                        }
                      }
                    }
                    JOINT RightInHandMiddle
                    {
                      OFFSET -3.38211 0.517263 0.756737
                      CHANNELS 3 Zrotation Xrotation Yrotation
                      JOINT RightHandMiddle1
                      {
                        OFFSET -5.17411 -0.084 0.313895
                        CHANNELS 3 Zrotation Xrotation Yrotation
                        JOINT RightHandMiddle2
                        {
                          OFFSET -3.94947 0 0
                          CHANNELS 3 Zrotation Xrotation Yrotation
                          JOINT RightHandMiddle3
                          {
                            OFFSET -2.47579 0 0
                            CHANNELS 3 Zrotation Xrotation Yrotation
                            End Site
                            {
                              OFFSET -1.975 0 0
                            }
                          }
                        }
                      }
                    }
                    JOINT RightInHandRing
                    {
                      OFFSET -3.36516 0.537895 -0.128947
                      CHANNELS 3 Zrotation Xrotation Yrotation
                      JOINT RightHandRing1
                      {
                        OFFSET -4.63474 -0.022105 -0.478947
                        CHANNELS 3 Zrotation Xrotation Yrotation
                        JOINT RightHandRing2
                        {
                          OFFSET -3.44238 0 0
                          CHANNELS 3 Zrotation Xrotation Yrotation
                          JOINT RightHandRing3
                          {
                            OFFSET -2.3881 0 0
                            CHANNELS 3 Zrotation Xrotation Yrotation
                            End Site
                            {
                              OFFSET -1.857 0 0
                            }
                          }
                        }
                      }
                    }
                    JOINT RightInHandPinky
                    {
                      OFFSET -3.16105 0.469368 -1.20179
                      CHANNELS 3 Zrotation Xrotation Yrotation
                      JOINT RightHandPinky1
                      {
                        OFFSET -4.14105 -0.022105 -1.09053
                        CHANNELS 3 Zrotation Xrotation Yrotation
                        JOINT RightHandPinky2
                        {
                          OFFSET -2.75653 0 0
                          CHANNELS 3 Zrotation Xrotation Yrotation
                          JOINT RightHandPinky3
                          {
                            OFFSET -1.74189 0 0
                            CHANNELS 3 Zrotation Xrotation Yrotation
                            End Site
                            {
                              OFFSET -1.645 0 0
                            }
                          }
                        }
                      }
                    }
                  }
                }
              }
            }
            JOINT LeftShoulder
            {
              OFFSET 3.25131 6.94393 -0.0111894
              CHANNELS 3 Zrotation Xrotation Yrotation
              JOINT LeftArm
              {
                OFFSET 12.7762 -0.0164608 -0.057961
                CHANNELS 3 Zrotation Xrotation Yrotation
                JOINT LeftForeArm
                {
                  OFFSET 26.494 -0.0292415 -0.00751187
                  CHANNELS 3 Zrotation Xrotation Yrotation
                  JOINT LeftHand
                  {
                    OFFSET 26.0005 -0.052199 0.00178648
                    CHANNELS 3 Zrotation Xrotation Yrotation
                    JOINT LeftHandThumb1
                    {
                      OFFSET 2.48905 0.190105 3.12053
                      CHANNELS 3 Zrotation Xrotation Yrotation
                      JOINT LeftHandThumb2
                      {
                        OFFSET 3.68274 0 0
                        CHANNELS 3 Zrotation Xrotation Yrotation
                        JOINT LeftHandThumb3
                        {
                          OFFSET 2.55832 0 0
                          CHANNELS 3 Zrotation Xrotation Yrotation
                          End Site
                          {
                            OFFSET 2.194 0 0
                          }
                        }
                      }
                    }
                    JOINT LeftInHandIndex
                    {
                      OFFSET 3.22368 0.508421 1.97842
                      CHANNELS 3 Zrotation Xrotation Yrotation
                      JOINT LeftHandIndex1
                      {
                        OFFSET 5.21684 -0.091368 0.999158
                        CHANNELS 3 Zrotation Xrotation Yrotation
                        JOINT LeftHandIndex2
                        {
                          OFFSET 3.61937 0 0
                          CHANNELS 3 Zrotation Xrotation Yrotation
                          JOINT LeftHandIndex3
                          {
                            OFFSET 2.0521 0 0
                            CHANNELS 3 Zrotation Xrotation Yrotation
                            End Site
                            {
                              OFFSET 1.805 0 0
                            }
                          }
                        }
                      }
                    }
                    JOINT LeftInHandMiddle
                    {
                      OFFSET 3.38211 0.517263 0.756737
                      CHANNELS 3 Zrotation Xrotation Yrotation
                      JOINT LeftHandMiddle1
                      {
                        OFFSET 5.17411 -0.084 0.313895
                        CHANNELS 3 Zrotation Xrotation Yrotation
                        JOINT LeftHandMiddle2
                        {
                          OFFSET 3.94947 0 0
                          CHANNELS 3 Zrotation Xrotation Yrotation
                          JOINT LeftHandMiddle3
                          {
                            OFFSET 2.47579 0 0
                            CHANNELS 3 Zrotation Xrotation Yrotation
                            End Site
                            {
                              OFFSET 1.975 0 0
                            }
                          }
                        }
                      }
                    }
                    JOINT LeftInHandRing
                    {
                      OFFSET 3.36516 0.537895 -0.128947
                      CHANNELS 3 Zrotation Xrotation Yrotation
                      JOINT LeftHandRing1
                      {
                        OFFSET 4.63474 -0.022105 -0.478947
                        CHANNELS 3 Zrotation Xrotation Yrotation
                        JOINT LeftHandRing2
                        {
                          OFFSET 3.44238 0 0
                          CHANNELS 3 Zrotation Xrotation Yrotation
                          JOINT LeftHandRing3
                          {
                            OFFSET 2.3881 0 0
                            CHANNELS 3 Zrotation Xrotation Yrotation
                            End Site
                            {
                              OFFSET 1.857 0 0
                            }
                          }
                        }
                      }
                    }
                    JOINT LeftInHandPinky
                    {
                      OFFSET 3.16105 0.469368 -1.20179
                      CHANNELS 3 Zrotation Xrotation Yrotation
                      JOINT LeftHandPinky1
                      {
                        OFFSET 4.14105 -0.022105 -1.09053
                        CHANNELS 3 Zrotation Xrotation Yrotation
                        JOINT LeftHandPinky2
                        {
                          OFFSET 2.75653 0 0
                          CHANNELS 3 Zrotation Xrotation Yrotation
                          JOINT LeftHandPinky3
                          {
                            OFFSET 1.74189 0 0
                            CHANNELS 3 Zrotation Xrotation Yrotation
                            End Site
                            {
                              OFFSET 1.645 0 0
                            }
                          }
                        }
                      }
                    }
                  }
                }
              }
            }
          }
        }
      }
    }
  }
}
MOTION
Frames: 2
Frame Time: 0.00833333
6.000000000000000000e+02 0.000000000000000000e+00 0.000000000000000000e+00 0.000000000000000000e+00 0.000000000000000000e+00 0.000000000000000000e+00 1.099871302508617817e-02 -1.540935196254158146e-01 -1.351941387009990003e-01 -8.803587173981930469e-02 -1.880196510438370550e-01 4.539810554789669994e-01 2.278335851024480829e-01 -7.092874642081839487e-02 -3.373992102511175206e-01 -3.091559499551133072e-01 1.162380008967474287e+00 -1.127429246004587882e-01 -3.436505340077752185e-02 2.523644647808686026e-01 -1.002908374140270287e-01 -5.318804562649650375e-02 -8.832616115065872187e-02 8.757510047799271780e-02 -6.945936463335267153e-02 2.817558687985029231e-02 1.433815800027644638e-01 5.249752817878955424e-02 -1.010332846603980567e-03 -2.745911053500910692e-01 1.290824528195283136e-02 -1.627312541283320799e-02 -6.985981694217401061e-02 2.006339782226973512e-02 -3.051461892029450063e-02 -1.111268427481171273e-01 -4.933372619218006835e-03 -4.033694370730598125e-04 1.690131754230465508e-02 1.286476808731447895e-02 -1.258842160304849203e-02 1.337227844067028215e-01 -5.332819045849051393e-02 -1.990754611035772115e-02 2.636442679948075019e-01 -1.535416236191340100e-01 -4.341822832745898669e-02 -2.415423527810514337e-01 -1.495176143541705471e-01 -6.175189945580857875e-01 -3.052426976005170878e-01 -5.458677847002956218e-01 2.562531556827043921e+00 -4.208906722189061922e-01 -3.658365866147212375e-01 -6.291506722678678054e-01 1.209613525653093213e-01 0.000000000000000000e+00 0.000000000000000000e+00 0.000000000000000000e+00 -3.175435079632422650e-15 -2.166022234174340739e-15 0.000000000000000000e+00 4.331229656025730136e-16 -1.693723024874180123e-15 0.000000000000000000e+00 8.014286629914847077e-17 -7.619757844164110345e-16 3.436734930001191609e-16 0.000000000000000000e+00 0.000000000000000000e+00 0.000000000000000000e+00 0.000000000000000000e+00 -1.040770559227598575e-16 -1.362198342128613585e-14 0.000000000000000000e+00 1.539714112529537689e-15 4.687816385881147748e-15 8.014286629914847077e-17 -7.619757844164110345e-16 3.436734930001191609e-16 0.000000000000000000e+00 -3.241252520915991660e-15 -6.173837906734619673e-15 0.000000000000000000e+00 -4.903725474314088338e-15 -1.054510191196126575e-14 0.000000000000000000e+00 1.400434744572034176e-17 5.159244220010022304e-15 8.014286629914847077e-17 -7.619757844164110345e-16 3.436734930001191609e-16 0.000000000000000000e+00 0.000000000000000000e+00 0.000000000000000000e+00 0.000000000000000000e+00 -6.570936124272404542e-15 -7.039150499060121846e-15 0.000000000000000000e+00 1.303861165779518462e-15 2.190305191680059519e-15 8.014286629914847077e-17 -7.619757844164110345e-16 3.436734930001191609e-16 0.000000000000000000e+00 0.000000000000000000e+00 0.000000000000000000e+00 0.000000000000000000e+00 -4.384644198220682638e-15 -1.236214419704848736e-14 0.000000000000000000e+00 -4.520108754241571995e-15 -8.124431305358530107e-15 -9.490058787309112870e-03 -5.562742022877280312e-02 -2.787110543424406450e-01 3.312335953287882662e-01 -7.721605553657744959e-03 -7.131676192558991101e-01 -2.302633474327202279e-01 -5.610603356734248370e-01 -5.947164694412003794e-01 -8.028291571938522830e-01 -3.126034928523654943e-01 -6.935770154810964039e-01 0.000000000000000000e+00 0.000000000000000000e+00 0.000000000000000000e+00 -1.464545090969741781e-15 -2.155338867787430582e-16 0.000000000000000000e+00 -5.868903649851823233e-16 5.680203226969512038e-16 0.000000000000000000e+00 -4.578615928272635399e-15 1.318165557745646248e-15 -3.732874731348715182e-16 0.000000000000000000e+00 0.000000000000000000e+00 0.000000000000000000e+00 0.000000000000000000e+00 1.211054843362072071e-15 9.177567158141779241e-15 0.000000000000000000e+00 8.705132451319239963e-16 8.589674417266374306e-15 -4.578615928272635399e-15 1.318165557745646248e-15 -3.732874731348715182e-16 0.000000000000000000e+00 1.096081114517039288e-15 2.879718611148409148e-15 0.000000000000000000e+00 -7.597911763246020351e-16 4.924360464033532709e-15 0.000000000000000000e+00 -9.791269970560049681e-16 1.140100585451979059e-14 -4.578615928272635399e-15 1.318165557745646248e-15 -3.732874731348715182e-16 0.000000000000000000e+00 0.000000000000000000e+00 0.000000000000000000e+00 0.000000000000000000e+00 -1.048061595957628253e-15 6.669813510863312378e-15 0.000000000000000000e+00 -3.437905120077121387e-15 1.606289429299077463e-14 -4.578615928272635399e-15 1.318165557745646248e-15 -3.732874731348715182e-16 0.000000000000000000e+00 0.000000000000000000e+00 0.000000000000000000e+00 0.000000000000000000e+00 1.786811448064247824e-15 5.836028420470454340e-15 0.000000000000000000e+00 -3.711608782370440048e-15 1.254285964972931078e-14
6.000000000000000000e+02 0.000000000000000000e+00 0.000000000000000000e+00 0.000000000000000000e+00 0.000000000000000000e+00 0.000000000000000000e+00 -1.923968615801506001e-03 -1.206543026851674971e-01 -7.081717205054070818e-02 -1.674653719073063152e-01 -1.746563442981488856e-01 3.441490060403765705e-01 2.520384695030674638e-01 -5.936274247310131813e-02 -3.663104184505310834e-01 -2.930453042479573833e-01 1.141418430691964803e+00 -1.145212832038815520e-01 -4.781367757921552164e-02 1.894119498815504121e-01 -1.493733475724075277e-01 -4.078805672316414971e-02 -8.137545019320249762e-02 8.438270579056905696e-02 -8.290402689979986528e-02 4.643204092049080939e-02 1.213050642105428789e-01 6.031529991532054435e-02 3.032986710978494149e-02 -2.719083122343048387e-01 1.531638903612316839e-02 -9.082515940440157379e-03 -7.048291185235970591e-02 2.384850130045018668e-02 -1.918774707405813962e-02 -1.109199698046098859e-01 -3.997086673947308072e-03 -8.360784959309812588e-04 1.365370118016273268e-02 1.521011741276238199e-02 -7.781115775209365357e-03 1.028772842917406449e-01 -3.912199735587520988e-02 -4.376917998821955313e-02 2.211591852507344691e-01 -1.738971230917593924e-01 -9.389554678568493018e-02 -2.211911238041916472e-01 -1.169909786296153553e-01 -4.907094745789422063e-01 -2.888230767486030803e-01 -7.287203669534313422e-01 2.586787112285952706e+00 -7.869642292627780922e-01 -3.855124264424011349e-01 -6.960180304862018108e-01 8.980846511602053051e-02 0.000000000000000000e+00 0.000000000000000000e+00 0.000000000000000000e+00 -2.993281655276942337e-15 -2.215587483049881249e-15 0.000000000000000000e+00 5.812801769420051733e-16 -1.672827904545656144e-15 0.000000000000000000e+00 7.095047905269121644e-17 -7.814954127897386667e-16 3.443544277185679714e-16 0.000000000000000000e+00 0.000000000000000000e+00 0.000000000000000000e+00 0.000000000000000000e+00 -6.453772322234444989e-17 -1.356015334499410036e-14 0.000000000000000000e+00 1.707346059379734984e-15 5.222211009514403186e-15 7.095047905269121644e-17 -7.814954127897386667e-16 3.443544277185679714e-16 0.000000000000000000e+00 -3.225247422042206828e-15 -5.816850566764518296e-15 0.000000000000000000e+00 -5.004795831151445393e-15 -1.053770690404728358e-14 0.000000000000000000e+00 1.877213960280443863e-16 5.592555962939548405e-15 7.095047905269121644e-17 -7.814954127897386667e-16 3.443544277185679714e-16 0.000000000000000000e+00 0.000000000000000000e+00 0.000000000000000000e+00 0.000000000000000000e+00 -6.719333513583300109e-15 -6.715800564056216955e-15 0.000000000000000000e+00 1.468465889183271131e-15 2.800183747341440330e-15 7.095047905269121644e-17 -7.814954127897386667e-16 3.443544277185679714e-16 0.000000000000000000e+00 0.000000000000000000e+00 0.000000000000000000e+00 0.000000000000000000e+00 -4.535265091135310599e-15 -1.250940520334798085e-14 0.000000000000000000e+00 -4.571608047572163522e-15 -7.734717917134295490e-15 2.855774779286028922e-02 -4.890422228018402595e-02 -2.603773818077159685e-01 2.450749619106742383e-01 5.229248913128477921e-03 -6.274318525633886257e-01 -2.800265644015956235e-01 -7.358851679246162236e-01 -4.981513982737119095e-01 -8.506067586614781684e-01 -3.148159645688142216e-01 -6.805105273828356838e-01 0.000000000000000000e+00 0.000000000000000000e+00 0.000000000000000000e+00 -1.353852953000660987e-15 -3.146213771001758303e-16 0.000000000000000000e+00 -7.752955374859963491e-16 3.857914315796561391e-16 0.000000000000000000e+00 -4.826791521518298701e-15 1.528143563821109073e-15 -4.020191752762677896e-16 0.000000000000000000e+00 0.000000000000000000e+00 0.000000000000000000e+00 0.000000000000000000e+00 1.231559725952105502e-15 9.230171942401842733e-15 0.000000000000000000e+00 9.521878381480620445e-16 8.408833979566578404e-15 -4.826791521518298701e-15 1.528143563821109073e-15 -4.020191752762677896e-16 0.000000000000000000e+00 9.288559690914166396e-16 2.610002649556629135e-15 0.000000000000000000e+00 -7.460566172613861972e-16 4.724412621548765989e-15 0.000000000000000000e+00 -8.272377297614177188e-16 1.141333038620101189e-14 -4.826791521518298701e-15 1.528143563821109073e-15 -4.020191752762677896e-16 0.000000000000000000e+00 0.000000000000000000e+00 0.000000000000000000e+00 0.000000000000000000e+00 -9.923625220622592657e-16 6.540479632274147346e-15 0.000000000000000000e+00 -3.440435439760933319e-15 1.623361792933823176e-14 -4.826791521518298701e-15 1.528143563821109073e-15 -4.020191752762677896e-16 0.000000000000000000e+00 0.000000000000000000e+00 0.000000000000000000e+00 0.000000000000000000e+00 1.778851376480053979e-15 5.802251681541120693e-15 0.000000000000000000e+00 -3.681464797568771310e-15 1.238423725005232116e-14
